<svg width="58" height="47" viewBox="0 0 58 47" fill="none" xmlns="http://www.w3.org/2000/svg">
<path d="M45.2393 9.97168C49.1476 9.97179 50.5791 12.0447 50.5791 12.8877C50.579 13.2292 50.395 13.5332 49.8027 13.5332C47.013 13.5332 45.2646 15.2052 43.9102 17.4336C42.5543 19.6643 28.0826 42.9674 27.0947 44.5557C26.6604 45.3096 26.0379 45.9333 25.2871 46.3604C24.5363 46.7911 23.6864 47.0111 22.8252 47C21.964 47 21.1172 46.7765 20.3701 46.3457C19.6231 45.9149 19.0007 45.2951 18.5664 44.5449C18.5485 44.5163 7.07142 26.1521 5.51562 23.6914C3.46194 20.3489 2.76269 19.3721 0.900391 19.3721C0.164683 19.3719 -0.000935605 18.9596 -0.000976562 18.5771C-0.000976562 17.5039 1.7029 15.881 4.79785 15.8809C7.13125 15.8809 9.84817 16.8022 12.1963 20.583C12.2442 20.6592 17.9557 29.7402 22.2217 36.4785C22.3835 36.7345 22.5128 36.8906 22.7666 36.8906C23.0203 36.8904 23.201 36.6381 23.293 36.4785C25.4055 33.0766 35.3906 17.1914 36.6787 15.1934C39.1887 11.2458 42.2913 9.97168 45.2393 9.97168ZM53.2002 15.8809C56.2951 15.881 57.999 17.5039 57.999 18.5771C57.999 18.9596 57.826 19.3719 57.0977 19.3721H57.0938C55.2314 19.3721 54.5359 20.3489 52.4785 23.6914C50.9544 26.1544 39.457 44.5449 39.457 44.5449C39.0227 45.2951 38.4004 45.9149 37.6533 46.3457C36.9062 46.7765 36.0597 47.0037 35.2021 47C34.4147 47 33.6384 46.8135 32.9355 46.457C32.2326 46.0968 31.621 45.5771 31.1572 44.9346C31.0138 44.786 30.9218 44.5965 30.8887 44.3887C30.9218 44.1809 31.0139 43.9879 31.1572 43.832C31.2527 43.6691 45.7253 20.7044 45.8018 20.583C48.1756 16.8022 50.8742 15.8809 53.2002 15.8809ZM12.6924 9.96777C15.6293 9.96777 18.7439 11.2417 21.2539 15.1895C22.531 17.1913 26.8185 23.981 26.8848 24.1035C26.9582 24.2037 26.9953 24.3261 26.999 24.4521C26.9953 24.5821 26.9545 24.7087 26.8809 24.8164C26.7953 24.9368 23.2373 30.5843 23.1416 30.7402C23.0974 30.8219 23.0272 30.8922 22.9463 30.9404C22.8653 30.9887 22.7734 31.0146 22.6777 31.0146C22.5858 31.0146 22.4979 30.9884 22.417 30.9365C22.3397 30.8882 22.2768 30.8141 22.2363 30.7324C22.1445 30.6004 15.3941 19.6653 14.0361 17.4297C12.6781 15.1978 10.9264 13.5305 8.14062 13.5303C7.5482 13.5303 7.36726 13.2254 7.36719 12.8838C7.36719 12.0407 8.78083 9.96777 12.6895 9.96777H12.6924ZM28.9785 0C30.0679 0 31.1392 0.300912 32.0703 0.869141C33.0015 1.43737 33.7636 2.25469 34.2715 3.23145C34.3635 3.48368 34.5324 3.69898 34.7529 3.84375C34.9737 3.98854 35.239 4.05951 35.5039 4.04102C38.566 4.04102 41.0693 6.24348 41.0693 7.55078C41.0691 8.19673 40.5719 8.49778 39.8838 8.62402C37.5654 9.02512 36.3251 9.93099 34.4961 12.7754C32.487 15.9502 29.6387 20.3913 29.4941 20.627C29.2586 20.9761 29.1256 21.0098 28.96 21.0098C28.7945 21.0097 28.6696 20.9721 28.4453 20.627C28.2907 20.3929 25.4786 15.9512 23.4434 12.7832C21.6621 9.94969 20.3778 9.02808 18.0557 8.62695C17.3748 8.50068 16.8701 8.19993 16.8701 7.55371C16.8927 6.24269 19.4098 4.04504 22.4531 4.04492V4.04102C22.7181 4.05959 22.9796 3.98859 23.2041 3.84375C23.4248 3.69895 23.5982 3.48388 23.6865 3.23145C24.1907 2.25469 24.9529 1.44108 25.8877 0.869141C26.8187 0.301082 27.8893 4.85202e-05 28.9785 0Z" fill="#57EB5C"/>
</svg>
